<mxfile host="Electron" modified="2024-03-20T10:53:39.721Z" agent="Mozilla/5.0 (Windows NT 10.0; Win64; x64) AppleWebKit/537.36 (KHTML, like Gecko) draw.io/24.0.4 Chrome/120.0.6099.109 Electron/28.1.0 Safari/537.36" etag="gCLvOduNYdcfTfs8-n-j" version="24.0.4" type="device">
  <diagram name="Page-1" id="GvT5pwCz_BAh6Gjmjlnk">
    <mxGraphModel dx="798" dy="478" grid="1" gridSize="10" guides="1" tooltips="1" connect="1" arrows="1" fold="1" page="1" pageScale="1" pageWidth="850" pageHeight="1100" math="1" shadow="0">
      <root>
        <mxCell id="0" />
        <mxCell id="1" parent="0" />
        <mxCell id="LmlsaspDdkFEltpHJDzV-1" value="Black box" style="whiteSpace=wrap;html=1;aspect=fixed;" vertex="1" parent="1">
          <mxGeometry x="120" y="280" width="160" height="160" as="geometry" />
        </mxCell>
        <mxCell id="LmlsaspDdkFEltpHJDzV-2" value="" style="endArrow=oval;html=1;rounded=0;exitX=1;exitY=0.25;exitDx=0;exitDy=0;endFill=1;" edge="1" parent="1" source="LmlsaspDdkFEltpHJDzV-1">
          <mxGeometry width="50" height="50" relative="1" as="geometry">
            <mxPoint x="320" y="440" as="sourcePoint" />
            <mxPoint x="320" y="320" as="targetPoint" />
          </mxGeometry>
        </mxCell>
        <mxCell id="LmlsaspDdkFEltpHJDzV-3" value="" style="endArrow=oval;html=1;rounded=0;exitX=1;exitY=0.75;exitDx=0;exitDy=0;endFill=1;" edge="1" parent="1" source="LmlsaspDdkFEltpHJDzV-1">
          <mxGeometry width="50" height="50" relative="1" as="geometry">
            <mxPoint x="320" y="440" as="sourcePoint" />
            <mxPoint x="320" y="400" as="targetPoint" />
          </mxGeometry>
        </mxCell>
        <mxCell id="LmlsaspDdkFEltpHJDzV-4" value="A" style="text;html=1;align=center;verticalAlign=middle;whiteSpace=wrap;rounded=0;" vertex="1" parent="1">
          <mxGeometry x="300" y="300" width="60" height="30" as="geometry" />
        </mxCell>
        <mxCell id="LmlsaspDdkFEltpHJDzV-5" value="B" style="text;html=1;align=center;verticalAlign=middle;resizable=0;points=[];autosize=1;strokeColor=none;fillColor=none;" vertex="1" parent="1">
          <mxGeometry x="315" y="378" width="30" height="30" as="geometry" />
        </mxCell>
        <mxCell id="LmlsaspDdkFEltpHJDzV-6" value="" style="endArrow=classic;html=1;rounded=0;" edge="1" parent="1">
          <mxGeometry width="50" height="50" relative="1" as="geometry">
            <mxPoint x="350" y="360" as="sourcePoint" />
            <mxPoint x="450" y="360" as="targetPoint" />
          </mxGeometry>
        </mxCell>
        <mxCell id="LmlsaspDdkFEltpHJDzV-7" value="ThÃ©venin" style="text;html=1;align=center;verticalAlign=middle;resizable=0;points=[];autosize=1;strokeColor=none;fillColor=none;" vertex="1" parent="1">
          <mxGeometry x="360" y="330" width="70" height="30" as="geometry" />
        </mxCell>
        <mxCell id="LmlsaspDdkFEltpHJDzV-8" value="" style="pointerEvents=1;verticalLabelPosition=bottom;shadow=0;dashed=0;align=center;html=1;verticalAlign=top;shape=mxgraph.electrical.signal_sources.dc_source_1;" vertex="1" parent="1">
          <mxGeometry x="500" y="322.5" width="70" height="75" as="geometry" />
        </mxCell>
        <mxCell id="LmlsaspDdkFEltpHJDzV-9" value="" style="pointerEvents=1;verticalLabelPosition=bottom;shadow=0;dashed=0;align=center;html=1;verticalAlign=top;shape=mxgraph.electrical.resistors.resistor_2;" vertex="1" parent="1">
          <mxGeometry x="580" y="280" width="100" height="20" as="geometry" />
        </mxCell>
        <mxCell id="LmlsaspDdkFEltpHJDzV-10" value="" style="endArrow=none;html=1;rounded=0;exitX=0.58;exitY=0.135;exitDx=0;exitDy=0;exitPerimeter=0;" edge="1" parent="1" source="LmlsaspDdkFEltpHJDzV-8">
          <mxGeometry width="50" height="50" relative="1" as="geometry">
            <mxPoint x="400" y="450" as="sourcePoint" />
            <mxPoint x="540" y="290" as="targetPoint" />
          </mxGeometry>
        </mxCell>
        <mxCell id="LmlsaspDdkFEltpHJDzV-11" value="" style="endArrow=none;html=1;rounded=0;entryX=0;entryY=0.5;entryDx=0;entryDy=0;entryPerimeter=0;" edge="1" parent="1" target="LmlsaspDdkFEltpHJDzV-9">
          <mxGeometry width="50" height="50" relative="1" as="geometry">
            <mxPoint x="540" y="290" as="sourcePoint" />
            <mxPoint x="450" y="400" as="targetPoint" />
          </mxGeometry>
        </mxCell>
        <mxCell id="LmlsaspDdkFEltpHJDzV-12" value="" style="endArrow=none;html=1;rounded=0;entryX=0.58;entryY=0.935;entryDx=0;entryDy=0;entryPerimeter=0;" edge="1" parent="1" target="LmlsaspDdkFEltpHJDzV-8">
          <mxGeometry width="50" height="50" relative="1" as="geometry">
            <mxPoint x="540" y="430" as="sourcePoint" />
            <mxPoint x="540" y="370" as="targetPoint" />
          </mxGeometry>
        </mxCell>
        <mxCell id="LmlsaspDdkFEltpHJDzV-15" value="" style="endArrow=none;html=1;rounded=0;startArrow=oval;startFill=1;" edge="1" parent="1">
          <mxGeometry width="50" height="50" relative="1" as="geometry">
            <mxPoint x="720" y="430" as="sourcePoint" />
            <mxPoint x="540" y="430" as="targetPoint" />
          </mxGeometry>
        </mxCell>
        <mxCell id="LmlsaspDdkFEltpHJDzV-16" value="" style="endArrow=none;html=1;rounded=0;entryX=1;entryY=0.5;entryDx=0;entryDy=0;entryPerimeter=0;startArrow=oval;startFill=1;" edge="1" parent="1" target="LmlsaspDdkFEltpHJDzV-9">
          <mxGeometry width="50" height="50" relative="1" as="geometry">
            <mxPoint x="720" y="290" as="sourcePoint" />
            <mxPoint x="500" y="360" as="targetPoint" />
          </mxGeometry>
        </mxCell>
        <mxCell id="LmlsaspDdkFEltpHJDzV-17" value="A" style="text;html=1;align=center;verticalAlign=middle;resizable=0;points=[];autosize=1;strokeColor=none;fillColor=none;" vertex="1" parent="1">
          <mxGeometry x="720" y="270" width="30" height="30" as="geometry" />
        </mxCell>
        <mxCell id="LmlsaspDdkFEltpHJDzV-18" value="B" style="text;html=1;align=center;verticalAlign=middle;resizable=0;points=[];autosize=1;strokeColor=none;fillColor=none;" vertex="1" parent="1">
          <mxGeometry x="720" y="408" width="30" height="30" as="geometry" />
        </mxCell>
        <mxCell id="LmlsaspDdkFEltpHJDzV-19" value="$$R_{\text{eq,tn}}$$" style="text;html=1;align=center;verticalAlign=middle;resizable=0;points=[];autosize=1;strokeColor=none;fillColor=none;" vertex="1" parent="1">
          <mxGeometry x="565" y="250" width="130" height="30" as="geometry" />
        </mxCell>
        <mxCell id="LmlsaspDdkFEltpHJDzV-20" value="$$e_{\text{eq,tn}}$$" style="text;html=1;align=center;verticalAlign=middle;resizable=0;points=[];autosize=1;strokeColor=none;fillColor=none;" vertex="1" parent="1">
          <mxGeometry x="530" y="345" width="130" height="30" as="geometry" />
        </mxCell>
      </root>
    </mxGraphModel>
  </diagram>
</mxfile>
